# xmcd CD database file
#
# Track frame offsets:
#	150
#	14825
#	28534
#	42724
#	57845
#	74414
#	89770
#	105827
#	119948
#	138132
#	152275
#	166124
#
# Disc length: 2415 seconds
#
# Revision: 0
# Processed by: cddbd v1.5.2PL0 Copyright (c) Steve Scherf et al.
# Submitted via: CDex 1.51
#
DISCID=a1096d0c
DTITLE=Reflections - Blue Grass
DYEAR=2005
DGENRE=Country
TTITLE0=Jolene
TTITLE1=But I do
TTITLE2=Good love
TTITLE3=Hitchcock railway
TTITLE4=Caught in the crossfire
TTITLE5=Rocky road
TTITLE6=Jealous heart
TTITLE7=I've got that old feeling
TTITLE8=Why can't you love me
TTITLE9=Clover
TTITLE10=Standing by the bedside of a neighbor
TTITLE11=Where did you go
EXTD=YEAR: 2005
EXTT0=
EXTT1=
EXTT2=
EXTT3=
EXTT4=
EXTT5=
EXTT6=
EXTT7=
EXTT8=
EXTT9=
EXTT10=
EXTT11=
PLAYORDER=
